<svg viewBox="0 0 11.9997 6.999" fill="none" xmlns="http://www.w3.org/2000/svg" xmlns:xlink="http://www.w3.org/1999/xlink" x="0" y="0"><path id="icon/16/arrow-right" fill-rule="evenodd" clip-rule="evenodd" d="M11.7067,0.2929c0.361,0.3605 0.388,0.928 0.083,1.3203l-0.083,0.0938l-5,5l-0.07,0.0634c-0.052,0.0432 -0.107,0.0804 -0.165,0.1114c-0.008,0.0044 -0.017,0.0075 -0.026,0.0117c-0.019,0.0097 -0.038,0.019 -0.058,0.0273c-0.014,0.0057 -0.027,0.0106 -0.041,0.0156c-0.013,0.0048 -0.026,0.0095 -0.039,0.0137c-0.015,0.0049 -0.031,0.0095 -0.046,0.0137c-0.019,0.0052 -0.038,0.0106 -0.058,0.0146c-0.008,0.0017 -0.016,0.0025 -0.024,0.0039c-0.022,0.0041 -0.044,0.0073 -0.067,0.0098c-0.01,0.0012 -0.021,0.0021 -0.032,0.0029c-0.019,0.0016 -0.038,0.0025 -0.057,0.003c-0.011,0.0002 -0.022,0.001 -0.033,0.0009c-0.053,-0.0004 -0.105,-0.0058 -0.158,-0.0146c-0.114,-0.0193 -0.225,-0.0588 -0.329,-0.1182c-0.04,-0.0229 -0.08,-0.0473 -0.117,-0.0761l-0.011,-0.0108c-0.028,-0.0227 -0.057,-0.046 -0.083,-0.0722l-5,-5c-0.39,-0.3906 -0.39,-1.0236 0,-1.4141c0.361,-0.3605 0.928,-0.388 1.32,-0.083l0.094,0.083l4.293,4.293l4.293,-4.293c0.391,-0.3905 1.024,-0.3905 1.414,0z" fill="currentColor"/></svg>