<svg viewBox="0 0 133.5 133.5" fill="none" xmlns="http://www.w3.org/2000/svg" xmlns:xlink="http://www.w3.org/1999/xlink" id="c9672dea" x="0" y="0"><g id="Activity Summary-Desktop" data-node-id="3902:80628" clip-path="url(#clip0_3902_80628)"><g id="Frame 427320814" data-node-id="3902:80631"><g id="Frame 427320813" data-node-id="3902:80641"><g id="logo_2" data-node-id="3902:80642" clip-path="url(#clip1_3902_80628)"><g id="Group" data-node-id="I3902:80642;433:15293"><g id="Group 3" data-node-id="I3902:80642;433:15294">
<mask id="mask0_3902_80628" style="mask-type:luminance" maskUnits="userSpaceOnUse" x="-0.14650000000006003" y="-0.25" width="134" height="134">
<path id="Clip 2" data-node-id="I3902:80642;433:15295" fill-rule="evenodd" clip-rule="evenodd" d="M51.2935,9.09c-2.42,0.65 -5.34,0.13 -8.24,-0.39c-3.55,-0.64 -7.08,-1.27 -9.69,0.23c-4.79,2.78 -4.92,11.73 -8.81,15.62c-3.9,3.89 -12.84,4.02 -15.62,8.82c-2.74,4.73 1.6,12.53 0.16,17.93c-1.4,5.22 -9.09,9.79 -9.09,15.45c0,5.66 7.69,10.23 9.09,15.45c1.44,5.4 -2.9,13.2 -0.16,17.93c2.78,4.8 11.72,4.93 15.62,8.82c3.89,3.89 4.02,12.84 8.81,15.61c2.61,1.51 6.14,0.88 9.69,0.24c2.9,-0.52 5.81,-1.04 8.24,-0.39c5.22,1.39 9.8,9.09 15.46,9.09c5.66,0 10.23,-7.7 15.45,-9.09c2.43,-0.65 5.34,-0.13 8.24,0.39c3.55,0.64 7.09,1.27 9.69,-0.23c4.79,-2.78 4.92,-11.73 8.82,-15.62c3.89,-3.89 12.84,-4.02 15.61,-8.82c2.74,-4.73 -1.6,-12.53 -0.16,-17.93c1.4,-5.22 9.1,-9.79 9.1,-15.45c0,-5.66 -7.7,-10.23 -9.1,-15.45c-1.44,-5.4 2.9,-13.2 0.16,-17.93c-2.77,-4.8 -11.72,-4.93 -15.61,-8.82c-3.9,-3.89 -4.03,-12.84 -8.82,-15.62c-2.6,-1.5 -6.14,-0.87 -9.69,-0.23c-2.9,0.52 -5.81,1.04 -8.24,0.39c-5.22,-1.39 -9.79,-9.09 -15.45,-9.09c-5.66,0 -10.24,7.7 -15.46,9.09z" fill="white"/>
</mask>
<g mask="url(#mask0_3902_80628)">
<path id="Fill 1" data-node-id="I3902:80642;433:15296" fill-rule="evenodd" clip-rule="evenodd" d="M51.2935,9.09c-2.42,0.65 -5.34,0.13 -8.24,-0.39c-3.55,-0.64 -7.08,-1.27 -9.69,0.23c-4.79,2.78 -4.92,11.73 -8.81,15.62c-3.9,3.89 -12.84,4.02 -15.62,8.82c-2.74,4.73 1.6,12.53 0.16,17.93c-1.4,5.22 -9.09,9.79 -9.09,15.45c0,5.66 7.69,10.23 9.09,15.45c1.44,5.4 -2.9,13.2 -0.16,17.93c2.78,4.8 11.72,4.93 15.62,8.82c3.89,3.89 4.02,12.84 8.81,15.61c2.61,1.51 6.14,0.88 9.69,0.24c2.9,-0.52 5.81,-1.04 8.24,-0.39c5.22,1.39 9.8,9.09 15.46,9.09c5.66,0 10.23,-7.7 15.45,-9.09c2.43,-0.65 5.34,-0.13 8.24,0.39c3.55,0.64 7.09,1.27 9.69,-0.23c4.79,-2.78 4.92,-11.73 8.82,-15.62c3.89,-3.89 12.84,-4.02 15.61,-8.82c2.74,-4.73 -1.6,-12.53 -0.16,-17.93c1.4,-5.22 9.1,-9.79 9.1,-15.45c0,-5.66 -7.7,-10.23 -9.1,-15.45c-1.44,-5.4 2.9,-13.2 0.16,-17.93c-2.77,-4.8 -11.72,-4.93 -15.61,-8.82c-3.9,-3.89 -4.03,-12.84 -8.82,-15.62c-2.6,-1.5 -6.14,-0.87 -9.69,-0.23c-2.9,0.52 -5.81,1.04 -8.24,0.39c-5.22,-1.39 -9.79,-9.09 -15.45,-9.09c-5.66,0 -10.24,7.7 -15.46,9.09z" fill="url(#paint0_linear_3902_80628)"/>
</g>
</g><path id="Stroke 4" data-node-id="I3902:80642;433:15297" fill-rule="evenodd" clip-rule="evenodd" d="M125.6035,66.75c0,4.99 -6.79,9.02 -8.02,13.62c-1.27,4.77 2.55,11.64 0.14,15.81c-2.44,4.23 -10.33,4.34 -13.77,7.78c-3.43,3.43 -3.54,11.32 -7.77,13.77c-4.17,2.41 -11.05,-1.41 -15.81,-0.14c-4.6,1.23 -8.63,8.01 -13.62,8.01c-4.99,0 -9.03,-6.78 -13.63,-8.01c-4.76,-1.27 -11.64,2.55 -15.81,0.14c-4.23,-2.45 -4.34,-10.34 -7.77,-13.77c-3.43,-3.44 -11.32,-3.55 -13.77,-7.78c-2.41,-4.17 1.41,-11.04 0.14,-15.81c-1.23,-4.6 -8.02,-8.63 -8.02,-13.62c0,-4.99 6.79,-9.02 8.02,-13.62c1.27,-4.77 -2.55,-11.64 -0.14,-15.81c2.45,-4.23 10.34,-4.34 13.77,-7.78c3.43,-3.43 3.54,-11.32 7.77,-13.77c4.17,-2.41 11.05,1.41 15.81,0.14c4.6,-1.23 8.64,-8.02 13.63,-8.02c4.99,0 9.02,6.79 13.62,8.02c4.76,1.27 11.64,-2.55 15.81,-0.14c4.23,2.45 4.34,10.34 7.77,13.77c3.44,3.44 11.33,3.55 13.77,7.78c2.41,4.17 -1.41,11.04 -0.14,15.81c1.23,4.6 8.02,8.63 8.02,13.62z" stroke="#9F4407" stroke-width="1.1811"/></g></g></g></g></g><defs><mask id="mask0_3902_80628" style="mask-type:luminance" maskUnits="userSpaceOnUse" x="1074" y="2057" width="134" height="134">
<path id="Clip 2" data-node-id="I3902:80642;433:15295" fill-rule="evenodd" clip-rule="evenodd" d="M1125.44 2066.34C1123.02 2066.99 1120.1 2066.47 1117.2 2065.95C1113.65 2065.31 1110.12 2064.68 1107.51 2066.18C1102.72 2068.96 1102.59 2077.91 1098.7 2081.8C1094.8 2085.69 1085.86 2085.82 1083.08 2090.62C1080.34 2095.35 1084.68 2103.15 1083.24 2108.55C1081.84 2113.77 1074.15 2118.34 1074.15 2124C1074.15 2129.66 1081.84 2134.23 1083.24 2139.45C1084.68 2144.85 1080.34 2152.65 1083.08 2157.38C1085.86 2162.18 1094.8 2162.31 1098.7 2166.2C1102.59 2170.09 1102.72 2179.04 1107.51 2181.81C1110.12 2183.32 1113.65 2182.69 1117.2 2182.05C1120.1 2181.53 1123.01 2181.01 1125.44 2181.66C1130.66 2183.05 1135.24 2190.75 1140.9 2190.75C1146.56 2190.75 1151.13 2183.05 1156.35 2181.66C1158.78 2181.01 1161.69 2181.53 1164.59 2182.05C1168.14 2182.69 1171.68 2183.32 1174.28 2181.82C1179.07 2179.04 1179.2 2170.09 1183.1 2166.2C1186.99 2162.31 1195.94 2162.18 1198.71 2157.38C1201.45 2152.65 1197.11 2144.85 1198.55 2139.45C1199.95 2134.23 1207.65 2129.66 1207.65 2124C1207.65 2118.34 1199.95 2113.77 1198.55 2108.55C1197.11 2103.15 1201.45 2095.35 1198.71 2090.62C1195.94 2085.82 1186.99 2085.69 1183.1 2081.8C1179.2 2077.91 1179.07 2068.96 1174.28 2066.18C1171.68 2064.68 1168.14 2065.31 1164.59 2065.95C1161.69 2066.47 1158.78 2066.99 1156.35 2066.34C1151.13 2064.95 1146.56 2057.25 1140.9 2057.25C1135.24 2057.25 1130.66 2064.95 1125.44 2066.34Z" fill="white"/>
</mask><linearGradient id="paint0_linear_3902_80628" x1="37.043499999999995" y1="-57.460000000000036" x2="-80.89650000000006" y2="99.80000000000018" gradientUnits="userSpaceOnUse">
<stop stop-color="#FFD700"/>
<stop offset="1" stop-color="#FFBE00"/>
</linearGradient><clipPath id="clip0_3902_80628">
<rect width="1440" height="4709" fill="white" x="-1074.1465" y="-2057.25"/>
</clipPath><clipPath id="clip1_3902_80628">
<rect width="133.5" height="133.5" fill="white" transform="translate(0.003500000000030923, 0)"/>
</clipPath></defs></svg>