<svg viewBox="0 0 20 21.0761" fill="none" xmlns="http://www.w3.org/2000/svg" xmlns:xlink="http://www.w3.org/1999/xlink" x="0" y="0"><path id="Combined Shape_8" d="M16.016,0.0662c2.202,0.01 3.984,1.8 3.984,4v13.01c0,2.21 -1.791,4 -4,4h-16v-21.08zM2,19.0762h14c1.054,0 1.918,-0.82 1.994,-1.85l0.006,-0.15v-13.01c0,-1.1 -0.891,-2 -1.992,-2l-14.008,-0.06zM11.6,15.6662h-3.606v-1.17h3.606zM9.798,3.0762c2.642,0.01 4.793,2.16 4.793,4.8c-0.263,6.35 -9.322,6.36 -9.586,0c0,-2.64 2.15,-4.8 4.793,-4.8zM8.929,8.4562c0.033,0.95 0.325,2.62 0.869,3.03c0.542,-0.4 0.836,-2.09 0.868,-3.03zM6.226,8.4562c0.194,1.19 0.966,2.18 2.015,2.69c-0.282,-0.76 -0.44,-1.72 -0.486,-2.69zM11.841,8.4562c-0.046,0.97 -0.206,1.93 -0.487,2.69c1.049,-0.51 1.822,-1.5 2.016,-2.69zM8.241,4.6062c-1.05,0.5 -1.821,1.5 -2.015,2.68h1.529c0.046,-0.97 0.204,-1.92 0.486,-2.68zM9.798,4.2562c-0.542,0.41 -0.838,2.09 -0.869,3.03h1.737c-0.033,-0.94 -0.324,-2.62 -0.868,-3.03zM11.354,4.6062c0.281,0.76 0.441,1.72 0.487,2.68h1.529c-0.194,-1.18 -0.967,-2.18 -2.016,-2.68z" fill="currentColor"/></svg>