<svg viewBox="0 0 28 27" fill="none" xmlns="http://www.w3.org/2000/svg" xmlns:xlink="http://www.w3.org/1999/xlink" x="0" y="0"><path id="icon/32/activity" fill-rule="evenodd" clip-rule="evenodd" d="M7.896,27c-0.725,0 -1.313,-0.579 -1.313,-1.293c0,-0.715 0.588,-1.294 1.313,-1.294h12.208c0.725,0 1.313,0.579 1.313,1.294c0,0.714 -0.588,1.293 -1.313,1.293zM12.566,24.406v-2.29h-9.066c-1.933,0 -3.5,-1.544 -3.5,-3.449v-15.218c0,-1.905 1.567,-3.449 3.5,-3.449h21c1.933,0 3.5,1.544 3.5,3.449v15.218c0,1.905 -1.567,3.449 -3.5,3.449h-9.309v2.29zM2.626,3.452v15.217c0,0.476 0.392,0.862 0.875,0.862h21c0.483,0 0.875,-0.386 0.875,-0.862v-15.217c0,-0.476 -0.392,-0.862 -0.875,-0.862h-21c-0.483,0 -0.874,0.385 -0.875,0.86zM12.993,16.032c-0.457,-0.026 -0.806,-0.412 -0.782,-0.862v-1.725c-0.024,-0.45 0.325,-0.836 0.782,-0.862h8.424c0.456,0.028 0.804,0.413 0.779,0.862v1.725c0.025,0.449 -0.323,0.834 -0.779,0.862zM6.945,16.032c-0.483,0 -0.875,-0.386 -0.875,-0.862v-1.725c0,-0.476 0.392,-0.862 0.875,-0.862h1.75c0.483,0 0.875,0.386 0.875,0.862v1.725c0,0.476 -0.392,0.862 -0.875,0.862zM12.993,9.535c-0.457,-0.026 -0.806,-0.411 -0.782,-0.862v-1.724c-0.024,-0.451 0.325,-0.836 0.782,-0.863h8.424c0.456,0.028 0.804,0.413 0.779,0.863v1.724c0.025,0.45 -0.323,0.835 -0.779,0.862zM6.945,9.535c-0.483,0 -0.875,-0.386 -0.875,-0.862v-1.724c0,-0.477 0.392,-0.863 0.875,-0.863h1.75c0.483,0 0.875,0.386 0.875,0.863v1.724c0,0.476 -0.392,0.862 -0.875,0.862z" fill="currentColor"/></svg>