<svg viewBox="0 0 19.9929 20.881" fill="none" xmlns="http://www.w3.org/2000/svg" xmlns:xlink="http://www.w3.org/1999/xlink" x="0" y="0"><path id="Combined Shape_6" fill-rule="evenodd" clip-rule="evenodd" d="M5.9407,3.55c0,0.19 0.158,0.35 0.351,0.35c0.193,0 0.349,-0.16 0.349,-0.35h0.034c0.165,-1.14 1.136,-2.01 2.317,-2.01c1.296,0 2.349,1.05 2.349,2.34v2.3h2.377c2.104,0.01 4.016,1.33 4.761,3.29l0.046,0.16l1.266,6.34c0.608,1.73 -0.196,3.67 -1.857,4.47c-0.612,0.29 -1.271,0.44 -1.929,0.44c-0.787,0 -1.572,-0.21 -2.271,-0.62l-2.269,-1.35c-0.902,-0.52 -2.035,-0.52 -2.946,0.01l-2.262,1.34c-1.285,0.76 -2.857,0.83 -4.205,0.17c-1.654,-0.79 -2.457,-2.73 -1.849,-4.46l1.31,-6.5c0.745,-1.96 2.658,-3.28 4.758,-3.29h3.07v-2.3c0,-0.19 -0.156,-0.34 -0.349,-0.34c-0.193,0 -0.351,0.15 -0.351,0.34h-0.033c-0.165,1.14 -1.135,2.02 -2.316,2.02c-1.296,0 -2.351,-1.05 -2.351,-2.35v-3.55h2zM6.2737,8.18c-1.249,0 -2.39,0.78 -2.862,1.93l-1.31,6.48c-0.297,0.79 0.063,1.68 0.818,2.04c0.745,0.36 1.609,0.33 2.317,-0.09l2.271,-1.35c0.77,-0.44 1.632,-0.67 2.492,-0.67c0.856,0 1.712,0.22 2.475,0.67l2.28,1.35c0.708,0.42 1.572,0.45 2.313,0.09c0.761,-0.36 1.119,-1.25 0.821,-2.04l-0.046,-0.16l-1.261,-6.32c-0.472,-1.15 -1.615,-1.93 -2.866,-1.93zM13.4007,13.58c0.552,0 1,0.45 1,1c0,0.56 -0.448,1 -1,1c-0.552,0 -1,-0.44 -1,-1c0,-0.55 0.448,-0.99 1,-1zM6.1047,10.45c0.553,0 1,0.45 1,1v0.54h0.536c0.552,0 1,0.44 1,1c0,0.55 -0.448,1 -1,1h-0.536v0.53c0,0.55 -0.447,1 -1,1c-0.552,0 -1,-0.45 -1,-1v-0.53h-0.537c-0.552,0 -1,-0.45 -1,-1c0,-0.56 0.448,-1 1,-1h0.537v-0.54c0,-0.55 0.448,-1 1,-1zM11.8657,12.06c0.552,0 1,0.45 1,1c0,0.56 -0.448,1 -1,1c-0.552,0 -1,-0.44 -1,-1c0,-0.55 0.448,-1 1,-1zM14.9877,11.94c0.552,0 1,0.45 1,1c0,0.55 -0.448,1 -1,1c-0.552,0 -1,-0.45 -1,-1c0,-0.55 0.448,-1 1,-1zM13.4007,10.32c0.552,0 1,0.45 1,1c0,0.55 -0.448,1 -1,1c-0.552,0 -1,-0.45 -1,-1c0,-0.55 0.448,-1 1,-1z" fill="currentColor"/></svg>