<svg viewBox="0 0 28 27" fill="none" xmlns="http://www.w3.org/2000/svg" xmlns:xlink="http://www.w3.org/1999/xlink" x="0" y="0"><path id="Combined Shape_2" d="M14,0c7.732,0 14,6.044 14,13.5c0,7.456 -6.268,13.5 -14,13.5c-7.732,0 -14,-6.044 -14,-13.5c0,-7.456 6.268,-13.5 14,-13.5zM14,2.531c-6.279,0.007 -11.368,4.914 -11.375,10.969c0,6.058 5.093,10.969 11.375,10.969c6.282,0 11.375,-4.911 11.375,-10.969c0,-6.058 -5.093,-10.969 -11.375,-10.969zM20.431,14.932c0.123,0.023 0.218,0.117 0.241,0.236l0.637,3.088c0.015,0.077 -0.002,0.157 -0.047,0.223c-0.046,0.065 -0.117,0.11 -0.197,0.125l-3.178,0.579c-0.121,0.021 -0.244,-0.029 -0.312,-0.127c-0.068,-0.099 -0.068,-0.229 0,-0.327l2.538,-3.667c0.068,-0.102 0.194,-0.154 0.318,-0.13zM15.11,10.518c1.266,0.439 2.17,1.607 2.17,2.978c0,0.276 -0.037,0.543 -0.106,0.798l2.386,1.54l-1.459,2.104l-2.559,-1.652c-0.46,0.237 -0.985,0.374 -1.543,0.374c-1.812,0 -3.281,-1.417 -3.281,-3.164c0,-1.221 0.717,-2.28 1.767,-2.808v-2.877h2.625zM13.999,12.863c-0.362,0 -0.656,0.284 -0.656,0.633c0,0.349 0.294,0.633 0.656,0.633c0.362,0 0.656,-0.284 0.656,-0.633c0,-0.349 -0.294,-0.633 -0.656,-0.633zM13.823,4.976c0.082,0 0.161,0.032 0.219,0.088l2.266,2.227c0.089,0.084 0.116,0.213 0.068,0.324c-0.048,0.112 -0.162,0.184 -0.287,0.182h-4.573c-0.125,0.001 -0.239,-0.071 -0.287,-0.182c-0.049,-0.111 -0.022,-0.239 0.067,-0.324l2.308,-2.227c0.058,-0.056 0.137,-0.088 0.219,-0.088z" fill="currentColor"/></svg>