<svg viewBox="0 0 20 20" fill="none" xmlns="http://www.w3.org/2000/svg" xmlns:xlink="http://www.w3.org/1999/xlink" x="0" y="0"><path id="Combined Shape_7" d="M10,0c5.523,0 10,4.48 10,10c0,5.52 -4.477,10 -10,10c-5.523,0 -10,-4.48 -10,-10c0,-5.52 4.477,-10 10,-10zM10,2c-4.418,0 -8,3.58 -8,8c0,4.42 3.582,8 8,8c4.418,0 8,-3.58 8,-8c0,-4.42 -3.582,-8 -8,-8zM7,7c0,-0.77 0.826,-1.25 1.492,-0.87l5.026,2.84c0.639,0.36 0.684,1.27 0.083,1.69l-5.027,3.53c-0.662,0.46 -1.574,-0.01 -1.574,-0.82zM9,11.44l2.155,-1.51l-2.155,-1.22z" fill="currentColor"/></svg>