<svg viewBox="0 0 21.1556 19.0927" fill="none" xmlns="http://www.w3.org/2000/svg" xmlns:xlink="http://www.w3.org/1999/xlink" x="0" y="0"><path id="Union_3" fill-rule="evenodd" clip-rule="evenodd" d="M11.4007,0.0033c4.141,0.08 7.43,3.51 7.346,7.65c-0.044,2.2 -1.029,4.15 -2.562,5.49l0.436,0.37c0.643,-0.38 1.43,-0.53 2.217,-0.34c1.613,0.37 2.615,1.99 2.239,3.6c-0.378,1.61 -1.992,2.62 -3.605,2.24c-1.613,-0.38 -2.615,-1.99 -2.238,-3.6c0.035,-0.15 0.081,-0.3 0.137,-0.44l-0.715,-0.79c-1.066,0.54 -2.278,0.84 -3.559,0.82c-1.963,-0.04 -3.734,-0.84 -5.046,-2.1l-0.519,0.55c0.387,0.61 0.559,1.36 0.424,2.12c-0.288,1.63 -1.845,2.72 -3.476,2.44c-1.632,-0.29 -2.721,-1.85 -2.434,-3.48c0.288,-1.63 1.844,-2.72 3.476,-2.43c0.148,0.02 0.291,0.06 0.43,0.11l0.845,-0.89c-0.69,-1.16 -1.076,-2.52 -1.047,-3.98c0.084,-4.14 3.51,-7.43 7.651,-7.34zM18.3827,15.1133c-0.537,-0.12 -1.076,0.21 -1.202,0.75c-0.125,0.54 0.209,1.08 0.746,1.2c0.538,0.13 1.075,-0.21 1.201,-0.74c0.126,-0.54 -0.207,-1.08 -0.745,-1.21zM3.1747,14.0733c-0.544,-0.1 -1.063,0.26 -1.159,0.81c-0.096,0.54 0.268,1.06 0.812,1.16c0.543,0.09 1.062,-0.27 1.158,-0.82c0.096,-0.54 -0.267,-1.06 -0.811,-1.15zM11.3717,10.0033c-1.418,-0.03 -2.762,0.46 -3.831,1.33l0.006,0.01l-0.113,0.12c0.962,0.92 2.262,1.51 3.703,1.54c1.533,0.03 2.931,-0.57 3.948,-1.57c-1.025,-0.88 -2.324,-1.4 -3.713,-1.43zM11.3597,2.0033c-3.037,-0.06 -5.549,2.35 -5.611,5.39c-0.017,0.86 0.165,1.68 0.504,2.41c0.652,-0.53 1.383,-0.96 2.167,-1.27c-0.423,-0.59 -0.666,-1.32 -0.65,-2.1c0.039,-1.94 1.638,-3.47 3.57,-3.43c1.933,0.04 3.467,1.64 3.428,3.57c-0.015,0.73 -0.258,1.41 -0.658,1.97c0.772,0.3 1.492,0.73 2.135,1.26c0.307,-0.67 0.487,-1.41 0.502,-2.19c0.062,-3.04 -2.35,-5.55 -5.387,-5.61zM11.2987,5.0033c-0.828,-0.02 -1.513,0.64 -1.53,1.47c-0.017,0.83 0.642,1.51 1.47,1.53c0.828,0.01 1.513,-0.64 1.53,-1.47c0.017,-0.83 -0.641,-1.52 -1.47,-1.53z" fill="currentColor"/></svg>