<svg viewBox="0 0 19 19" fill="none" xmlns="http://www.w3.org/2000/svg" xmlns:xlink="http://www.w3.org/1999/xlink" x="0" y="0"><path id="Combined Shape_9" d="M9.5,0c5.25,0 9.5,4.25 9.5,9.5c0,5.25 -4.25,9.5 -9.5,9.5c-5.25,0 -9.5,-4.25 -9.5,-9.5c0,-0.55 0.45,-1 1,-1c0.55,0 1,0.45 1,1c0,4.14 3.36,7.5 7.5,7.5c4.14,0 7.5,-3.36 7.5,-7.5c0,-4.14 -3.36,-7.5 -7.5,-7.5c-1.75,0 -3.4,0.6 -4.71,1.66l0.16,0.1c0.78,0.44 0.62,1.6 -0.24,1.83l-2.07,0.55c-0.53,0.15 -1.08,-0.17 -1.23,-0.7l-0.55,-2.08c-0.23,-0.86 0.69,-1.57 1.46,-1.12l0.65,0.37c1.74,-1.65 4.05,-2.61 6.53,-2.61zM10,5c0.51,0 0.94,0.39 0.99,0.88l0.01,0.12v3h2c0.51,0 0.94,0.39 0.99,0.88l0.01,0.12c0,0.51 -0.39,0.94 -0.88,0.99l-0.12,0.01h-4v-5c0,-0.55 0.45,-1 1,-1z" fill="currentColor"/></svg>