<svg viewBox="0 0 18 20" fill="none" xmlns="http://www.w3.org/2000/svg" xmlns:xlink="http://www.w3.org/1999/xlink" x="0" y="0"><path id="Union_2" d="M9,0c2.76,0 5,2.24 5,5v2h1c1.66,0 3,1.34 3,3v7c0,1.66 -1.34,3 -3,3h-12c-1.66,0 -3,-1.34 -3,-3v-7c0,-1.66 1.34,-3 3,-3h1v-2c0,-2.76 2.24,-5 5,-5zM3,9c-0.55,0 -1,0.45 -1,1v7c0,0.55 0.45,1 1,1h12c0.55,0 1,-0.45 1,-1v-7c0,-0.55 -0.45,-1 -1,-1zM9,11c0.55,0 1,0.45 1,1v3c0,0.55 -0.45,1 -1,1c-0.55,0 -1,-0.45 -1,-1v-3c0,-0.55 0.45,-1 1,-1zM9,2c-1.66,0 -3,1.34 -3,3v2h6v-2c0,-1.66 -1.34,-3 -3,-3z" fill="currentColor"/></svg>