<svg viewBox="0 0 28 27" fill="none" xmlns="http://www.w3.org/2000/svg" xmlns:xlink="http://www.w3.org/1999/xlink" x="0" y="0"><path id="32/collaboration_2" d="M13.575,0c2.014,0 3.699,1.44 4.133,3.371c4.523,1.723 7.747,6.193 7.747,11.436c0,0.407 -0.02,0.81 -0.059,1.208c1.529,0.658 2.604,2.209 2.604,4.017c0,2.405 -1.899,4.355 -4.242,4.356c-0.785,0 -1.519,-0.221 -2.15,-0.602c-2.114,1.994 -4.934,3.214 -8.032,3.214c-2.952,0 -5.65,-1.108 -7.727,-2.938c-0.496,0.209 -1.038,0.326 -1.607,0.326c-2.343,0 -4.242,-1.951 -4.242,-4.356c0,-1.474 0.714,-2.777 1.807,-3.565c-0.072,-0.543 -0.11,-1.097 -0.11,-1.66c0,-5.243 3.223,-9.713 7.745,-11.436c0.435,-1.931 2.12,-3.371 4.133,-3.371zM17.463,6.097c-0.655,1.537 -2.148,2.613 -3.888,2.613c-1.739,0 -3.233,-1.076 -3.887,-2.613c-3.213,1.513 -5.445,4.843 -5.445,8.71c0,0.293 0.014,0.584 0.039,0.871c2.325,0.022 4.202,1.963 4.202,4.354c0,0.854 -0.241,1.649 -0.654,2.321c1.584,1.273 3.578,2.035 5.746,2.035c2.441,0 4.662,-0.964 6.325,-2.539c-0.247,-0.553 -0.385,-1.168 -0.385,-1.817c0,-2.089 1.432,-3.834 3.344,-4.257c0.032,-0.318 0.049,-0.641 0.049,-0.968c0,-3.867 -2.233,-7.197 -5.446,-8.71zM4.243,18.291c-0.765,0 -1.412,0.519 -1.624,1.232c-0.013,0.046 -0.024,0.092 -0.034,0.138c-0.003,0.012 -0.005,0.024 -0.007,0.035c-0.007,0.038 -0.013,0.076 -0.017,0.115c-0.003,0.02 -0.005,0.04 -0.007,0.061c-0.005,0.053 -0.008,0.106 -0.008,0.16c0,0.057 0.003,0.112 0.008,0.167c0.001,0.019 0.004,0.037 0.007,0.055c0.003,0.032 0.008,0.063 0.013,0.095c0.004,0.023 0.01,0.047 0.015,0.07c0.007,0.031 0.015,0.062 0.023,0.093c0.006,0.02 0.012,0.04 0.018,0.06c0.007,0.024 0.016,0.047 0.024,0.07c0.036,0.097 0.079,0.19 0.13,0.278c0.009,0.015 0.017,0.03 0.026,0.044c0.047,0.077 0.101,0.149 0.16,0.218c0.01,0.012 0.02,0.023 0.031,0.035c0.177,0.195 0.396,0.347 0.644,0.443c0.005,0.002 0.01,0.004 0.015,0.006c0.182,0.068 0.378,0.108 0.583,0.108c0.878,0 1.601,-0.686 1.688,-1.564l0.008,-0.178c0,-0.053 -0.003,-0.106 -0.007,-0.158c-0.002,-0.015 -0.004,-0.031 -0.005,-0.046c-0.005,-0.044 -0.012,-0.088 -0.021,-0.132c-0.001,-0.008 -0.003,-0.017 -0.005,-0.025c-0.021,-0.103 -0.05,-0.203 -0.089,-0.298c-0.005,-0.013 -0.011,-0.025 -0.016,-0.038c-0.016,-0.038 -0.033,-0.075 -0.052,-0.111c-0.005,-0.011 -0.011,-0.022 -0.016,-0.033c-0.022,-0.039 -0.045,-0.077 -0.069,-0.115c-0.015,-0.023 -0.03,-0.045 -0.046,-0.067c-0.011,-0.016 -0.021,-0.031 -0.033,-0.046c-0.09,-0.119 -0.195,-0.224 -0.311,-0.316c-0.009,-0.007 -0.019,-0.013 -0.028,-0.02c-0.28,-0.21 -0.624,-0.336 -0.998,-0.336zM23.758,18.291c-0.937,0 -1.696,0.779 -1.696,1.741c0,0.883 0.639,1.61 1.469,1.724c0.011,0.001 0.021,0.003 0.031,0.005c0.008,0.001 0.015,0.003 0.022,0.004l0.174,0.009c0.937,0 1.697,-0.78 1.697,-1.742c0,-0.05 -0.004,-0.101 -0.008,-0.15c-0.001,-0.015 -0.001,-0.03 -0.003,-0.044c-0.003,-0.027 -0.008,-0.054 -0.012,-0.08c-0.005,-0.033 -0.011,-0.066 -0.018,-0.098c-0.005,-0.026 -0.012,-0.051 -0.018,-0.076c-0.01,-0.035 -0.02,-0.07 -0.031,-0.105c-0.008,-0.024 -0.016,-0.048 -0.025,-0.072c-0.013,-0.033 -0.026,-0.067 -0.04,-0.099c-0.01,-0.023 -0.021,-0.044 -0.031,-0.066c-0.015,-0.029 -0.031,-0.058 -0.047,-0.087c-0.014,-0.024 -0.028,-0.049 -0.043,-0.073c-0.019,-0.029 -0.038,-0.056 -0.058,-0.084c-0.014,-0.019 -0.027,-0.038 -0.042,-0.057c-0.022,-0.028 -0.046,-0.055 -0.07,-0.082c-0.013,-0.014 -0.025,-0.03 -0.038,-0.045l-0.014,-0.013c-0.307,-0.315 -0.731,-0.51 -1.199,-0.51zM13.576,2.613c-0.937,0 -1.697,0.78 -1.697,1.742c0,0.432 0.154,0.826 0.407,1.13c0.012,0.015 0.025,0.028 0.037,0.042c0.029,0.033 0.059,0.064 0.09,0.094c0.015,0.015 0.03,0.029 0.046,0.043c0.036,0.032 0.073,0.063 0.111,0.092c0.013,0.01 0.026,0.02 0.039,0.029c0.049,0.035 0.099,0.067 0.152,0.097c0.009,0.005 0.019,0.01 0.029,0.015c0.049,0.027 0.1,0.051 0.151,0.073c0.018,0.007 0.036,0.013 0.054,0.019c0.039,0.015 0.078,0.028 0.117,0.039c0.027,0.008 0.053,0.015 0.08,0.022c0.035,0.008 0.07,0.014 0.105,0.02c0.03,0.005 0.061,0.01 0.092,0.014c0.058,0.007 0.118,0.011 0.178,0.012c0.003,0 0.006,0.001 0.008,0.001v-0.001c0.063,0 0.126,-0.005 0.188,-0.012c0.029,-0.003 0.057,-0.009 0.086,-0.014c0.037,-0.006 0.075,-0.012 0.112,-0.021c0.024,-0.006 0.048,-0.013 0.072,-0.02c0.045,-0.012 0.088,-0.026 0.131,-0.043c0.013,-0.005 0.027,-0.01 0.04,-0.015c0.122,-0.05 0.237,-0.114 0.343,-0.19c0.007,-0.005 0.013,-0.01 0.019,-0.015c0.046,-0.034 0.09,-0.07 0.132,-0.108c0.01,-0.009 0.02,-0.018 0.03,-0.027c0.334,-0.318 0.545,-0.771 0.545,-1.276c0,-0.961 -0.76,-1.741 -1.697,-1.742z" fill="currentColor"/></svg>