<svg viewBox="0 0 31.9463 32" fill="none" xmlns="http://www.w3.org/2000/svg" xmlns:xlink="http://www.w3.org/1999/xlink" x="0" y="0"><g id="Group_12">
<path id="Path_2817" d="M15.973,0c8.822,0 15.973,7.16 15.973,16c0,8.84 -7.151,16 -15.973,16c-8.822,0 -15.973,-7.16 -15.973,-16c0,-8.84 7.151,-16 15.973,-16z" fill="currentColor"/>
<path id="Path_269" d="M20.133,17.28l0.496,-3.25h-3.106v-2.1c-0.044,-0.49 0.137,-0.97 0.492,-1.31c0.355,-0.34 0.845,-0.51 1.332,-0.44h1.412v-2.76c-0.829,-0.13 -1.667,-0.21 -2.507,-0.22c-2.555,0 -4.232,1.55 -4.232,4.36v2.48h-2.844v3.24h2.844v7.84c1.159,0.18 2.34,0.18 3.499,0v-7.84z" fill="white"/>
</g></svg>