<svg viewBox="0 0 26 24" fill="none" xmlns="http://www.w3.org/2000/svg" xmlns:xlink="http://www.w3.org/1999/xlink" x="0" y="0"><path id="Vector_292" d="M13,0.5c6.84,0 12.49,4.68 12.5,10.58v0.28c-0.09,2.92 -1.57,5.52 -3.88,7.38l-0.27,0.21l0.11,0.33l1.23,3.66v0c0.05,0.14 0.01,0.3 -0.08,0.4l-0.04,0.05c-0.13,0.12 -0.31,0.14 -0.47,0.07v0l-4.9,-2.29l-0.16,-0.08l-0.18,0.05c-1.22,0.33 -2.51,0.51 -3.86,0.51c-6.84,0 -12.5,-4.68 -12.5,-10.57c0,-5.9 5.66,-10.58 12.5,-10.58zM13,1.35c-6.5,0 -11.64,4.41 -11.64,9.73c0,5.31 5.14,9.72 11.64,9.72c1.39,0 2.71,-0.2 3.94,-0.57c0.11,-0.03 0.22,-0.02 0.32,0.03l3.25,1.51l1.05,0.5l-0.37,-1.11l-0.75,-2.24v0c-0.05,-0.15 -0.01,-0.32 0.1,-0.43l0.06,-0.04c2.49,-1.8 4.04,-4.44 4.04,-7.37c0,-5.32 -5.14,-9.73 -11.64,-9.73z" fill="currentColor" stroke="currentColor"/></svg>