<svg viewBox="0 0 28 27" fill="none" xmlns="http://www.w3.org/2000/svg" xmlns:xlink="http://www.w3.org/1999/xlink" x="0" y="0"><path id="Combined Shape_3" d="M13.267,0c7.326,0 13.265,5.948 13.265,13.283c0,0.109 -0.003,0.217 -0.006,0.324c0.377,0.11 0.76,0.206 1.147,0.282c0.191,0.043 0.327,0.214 0.327,0.41c-0.001,7.707 -0.094,10.813 -6.611,12.685c-0.078,0.021 -0.159,0.021 -0.237,0c-1.291,-0.371 -2.329,-0.793 -3.165,-1.287c-1.466,0.56 -3.057,0.868 -4.72,0.868c-6.884,0 -12.541,-5.249 -13.201,-11.968h-0.066v-2.628h0.066c0.66,-6.718 6.317,-11.969 13.201,-11.969zM21.271,14.009c-1.27,0.84 -2.65,1.5 -4.1,1.962c0.045,5.979 0.469,7.167 4.1,8.306c3.087,-0.964 3.851,-1.968 4.041,-5.928l-3.41,3.814c-0.249,0.278 -0.605,0.438 -0.978,0.438h-0.028c-0.126,-0.007 -0.252,-0.031 -0.371,-0.073c-0.02,-0.006 -0.043,-0.005 -0.064,-0.012c-0.185,-0.061 -0.355,-0.165 -0.494,-0.301l-1.838,-1.84c-0.497,-0.516 -0.49,-1.335 0.017,-1.842c0.506,-0.507 1.324,-0.513 1.839,-0.015l0.869,0.869l3.41,-3.815c-1.048,-0.417 -2.051,-0.94 -2.993,-1.563zM9.296,14.597c0.313,5.826 2.654,9.34 3.971,9.341c0.539,0 1.248,-0.592 1.921,-1.69c-0.607,-1.86 -0.645,-4.314 -0.647,-7.651zM2.715,14.597c0.453,3.667 2.773,6.756 5.978,8.292c-1.118,-2.135 -1.867,-5.038 -2.026,-8.292zM8.693,3.677c-3.205,1.536 -5.525,4.624 -5.978,8.292h3.952c0.159,-3.254 0.908,-6.157 2.026,-8.292zM13.267,2.628c-1.317,0 -3.658,3.516 -3.971,9.341h7.941c-0.314,-5.826 -2.654,-9.341 -3.97,-9.341zM17.84,3.677c1.095,2.092 1.834,4.921 2.014,8.094c0.389,-0.271 0.766,-0.561 1.125,-0.875c0.079,-0.075 0.183,-0.117 0.292,-0.117c0.108,0.001 0.213,0.043 0.291,0.117c0.449,0.391 0.921,0.748 1.415,1.073h0.84c-0.453,-3.668 -2.773,-6.755 -5.977,-8.292z" fill="currentColor"/></svg>