<svg viewBox="0 0 30 30" fill="none" xmlns="http://www.w3.org/2000/svg" xmlns:xlink="http://www.w3.org/1999/xlink" x="0" y="0"><path id="Union" d="M15,0c8.284,0 15,6.716 15,15c0,8.284 -6.716,15 -15,15c-8.284,0 -15,-6.716 -15,-15c0,-8.284 6.716,-15 15,-15zM15,3c-2.53,0 -4.875,0.785 -6.811,2.121l3.299,3.88h-3.938l-1.598,-1.88c-1.837,2.108 -2.952,4.863 -2.952,7.879c0,6.627 5.373,12 12,12c2.319,0 4.484,-0.66 6.319,-1.8l-4.419,-5.199h3.938l2.813,3.31c2.073,-2.157 3.349,-5.084 3.349,-8.311c0,-6.627 -5.373,-12 -12,-12zM14.166,10c0.589,0 1.11,0.113 1.561,0.338c0.454,0.221 0.809,0.533 1.065,0.936c0.26,0.403 0.391,0.876 0.391,1.417c0,0.429 -0.085,0.814 -0.254,1.157c-0.114,0.228 -0.271,0.45 -0.466,0.67c0.265,0.226 0.479,0.5 0.641,0.825c0.226,0.442 0.338,0.91 0.338,1.404c0,0.581 -0.141,1.099 -0.422,1.554c-0.282,0.45 -0.67,0.805 -1.164,1.065c-0.494,0.256 -1.057,0.384 -1.69,0.384c-0.632,0 -1.196,-0.128 -1.689,-0.384c-0.49,-0.26 -0.876,-0.615 -1.158,-1.065c-0.277,-0.455 -0.416,-0.973 -0.416,-1.554c0,-0.494 0.11,-0.96 0.331,-1.397c0.165,-0.319 0.381,-0.596 0.649,-0.829c-0.186,-0.217 -0.342,-0.441 -0.466,-0.673c-0.178,-0.343 -0.267,-0.728 -0.267,-1.157c0,-0.541 0.129,-1.014 0.384,-1.417c0.26,-0.403 0.615,-0.715 1.066,-0.936c0.455,-0.225 0.977,-0.338 1.566,-0.338zM8.562,19.555h-1.807v-7.436l-1.755,1.079v-1.95l1.755,-1.053h1.807zM14.166,15.395c-0.416,0 -0.751,0.117 -1.007,0.351c-0.255,0.23 -0.384,0.563 -0.384,1.001c0,0.442 0.129,0.776 0.384,1.001c0.256,0.225 0.591,0.338 1.007,0.338c0.416,0 0.755,-0.113 1.015,-0.338c0.26,-0.225 0.389,-0.559 0.389,-1.001c0,-0.437 -0.129,-0.771 -0.389,-1.001c-0.26,-0.234 -0.599,-0.351 -1.015,-0.351zM22.617,14.186h2.236v1.365h-2.236v2.249h-1.365v-2.249h-2.249v-1.365h2.249v-2.236h1.365zM14.166,11.651c-0.338,0 -0.613,0.087 -0.825,0.26c-0.212,0.169 -0.319,0.429 -0.319,0.78c0.001,0.351 0.107,0.611 0.319,0.78c0.212,0.164 0.487,0.247 0.825,0.247c0.338,0 0.614,-0.083 0.826,-0.247c0.212,-0.169 0.318,-0.429 0.319,-0.78c0,-0.35 -0.107,-0.611 -0.319,-0.78c-0.212,-0.173 -0.488,-0.26 -0.826,-0.26z" fill="currentColor"/></svg>