<svg viewBox="0 0 31.9463 32" fill="none" xmlns="http://www.w3.org/2000/svg" xmlns:xlink="http://www.w3.org/1999/xlink" x="0" y="0"><g id="Group_14">
<ellipse id="Ellipse_80-2" cx="15.977399999999989" cy="16" rx="15.9732" ry="16" fill="currentColor"/>
<g id="Group_419">
<rect id="Rectangle_609" x="9.021399999999971" y="12.960000000000036" width="2.95743" height="9.5152" fill="white"/>
<path id="Path_272" d="M10.5004,8.23c-0.693,0 -1.318,0.42 -1.583,1.06c-0.264,0.64 -0.118,1.38 0.372,1.87c0.49,0.49 1.227,0.63 1.868,0.37c0.64,-0.27 1.06,-0.89 1.05,-1.59c0,-0.45 -0.18,-0.89 -0.5,-1.21c-0.32,-0.32 -0.753,-0.5 -1.207,-0.5z" fill="white"/>
<path id="Path_273" d="M19.4974,12.72c-1.14,-0.04 -2.22,0.55 -2.8,1.54h-0.03v-1.3h-2.84v9.51h2.96v-4.7c0,-1.24 0.23,-2.45 1.77,-2.45c1.51,0 1.53,1.42 1.53,2.53v4.62h2.95v-5.22c0,-2.56 -0.55,-4.53 -3.54,-4.53z" fill="white"/>
</g>
</g></svg>