<svg viewBox="0 0 20 20" fill="none" xmlns="http://www.w3.org/2000/svg" xmlns:xlink="http://www.w3.org/1999/xlink" x="0" y="0"><path id="Combined Shape_5" d="M3,0c0.513,0 0.935,0.39 0.993,0.88l0.007,0.12v10.17c1.165,0.42 2,1.52 2,2.83c0,1.31 -0.835,2.41 -2,2.83v2.17c0,0.55 -0.448,1 -1,1c-0.513,0 -0.935,-0.39 -0.993,-0.88l-0.007,-0.12v-2.17c-1.165,-0.42 -2,-1.52 -2,-2.83c0,-1.31 0.835,-2.41 2,-2.83v-10.17c0,-0.55 0.448,-1 1,-1zM10,0c0.513,0 0.935,0.39 0.993,0.88l0.007,0.12v3.17c1.165,0.42 2,1.52 2,2.83c0,1.31 -0.835,2.41 -2,2.83v9.17c0,0.55 -0.448,1 -1,1c-0.513,0 -0.935,-0.39 -0.993,-0.88l-0.007,-0.12v-9.17c-1.165,-0.42 -2,-1.52 -2,-2.83c0,-1.31 0.835,-2.41 2,-2.83v-3.17c0,-0.55 0.448,-1 1,-1zM17,0c0.513,0 0.935,0.39 0.993,0.88l0.007,0.12v9.17c1.165,0.42 2,1.52 2,2.83c0,1.31 -0.835,2.41 -2,2.83v3.17c0,0.55 -0.448,1 -1,1c-0.513,0 -0.935,-0.39 -0.993,-0.88l-0.007,-0.12v-3.17c-1.165,-0.42 -2,-1.52 -2,-2.83c0,-1.31 0.835,-2.41 2,-2.83v-9.17c0,-0.55 0.448,-1 1,-1zM3,13c-0.552,0 -1,0.45 -1,1c0,0.55 0.448,1 1,1c0.552,0 1,-0.45 1,-1c0,-0.55 -0.448,-1 -1,-1zM17,12c-0.552,0 -1,0.45 -1,1c0,0.55 0.448,1 1,1c0.552,0 1,-0.45 1,-1c0,-0.55 -0.448,-1 -1,-1zM10,6c-0.552,0 -1,0.45 -1,1c0,0.55 0.448,1 1,1c0.552,0 1,-0.45 1,-1c0,-0.55 -0.448,-1 -1,-1z" fill="currentColor"/></svg>