<svg viewBox="0 0 28 27" fill="none" xmlns="http://www.w3.org/2000/svg" xmlns:xlink="http://www.w3.org/1999/xlink" x="0" y="0"><path id="icon/32/locator" fill-rule="evenodd" clip-rule="evenodd" d="M0,22.401c0,-2.828 5.04,-3.92 9.105,-4.338c-1.905,-3.456 -3.576,-6.892 -3.576,-9.086c0.035,-4.981 3.822,-8.995 8.471,-8.977c4.648,-0.017 8.434,3.997 8.468,8.977c0,2.213 -1.666,5.641 -3.567,9.086c4.059,0.419 9.099,1.509 9.099,4.338c0,4.472 -12.569,4.599 -13.999,4.599c-1.431,0 -14.001,-0.127 -14.001,-4.599zM2.523,22.401c0.884,0.756 4.545,1.863 10.188,2.012c-0.062,-0.08 -0.118,-0.166 -0.167,-0.257c-0.621,-1.136 -1.335,-2.375 -2.064,-3.653c-4.374,0.339 -7.195,1.25 -7.956,1.898zM15.454,24.159c-0.048,0.091 -0.104,0.177 -0.166,0.258c5.641,-0.15 9.301,-1.256 10.185,-2.012c-0.762,-0.648 -3.581,-1.559 -7.951,-1.894c-0.729,1.274 -1.444,2.513 -2.067,3.648zM14,21.754c0.25,-0.448 0.512,-0.904 0.781,-1.371c-0.256,-0.004 -0.516,-0.006 -0.781,-0.006c-0.262,0 -0.522,0 -0.777,0.006c0.268,0.468 0.528,0.925 0.777,1.371zM16.217,17.862c1.823,-3.243 3.85,-7.103 3.85,-8.883c-0.028,-3.562 -2.742,-6.428 -6.066,-6.407c-3.326,-0.022 -6.041,2.843 -6.069,6.407c0,1.756 2.034,5.63 3.859,8.883c1.09,-0.053 1.903,-0.059 2.21,-0.059c0.306,0 1.122,0.006 2.216,0.059zM10.495,9.205c0.016,-2.06 1.583,-3.72 3.506,-3.712c1.922,-0.006 3.487,1.653 3.502,3.712c-0.017,2.058 -1.581,3.716 -3.502,3.712c-1.921,0.006 -3.487,-1.65 -3.506,-3.709zM12.895,9.205c0.02,0.637 0.509,1.142 1.104,1.139c0.595,0.003 1.083,-0.503 1.101,-1.139c-0.017,-0.638 -0.506,-1.144 -1.101,-1.142c-0.597,-0.002 -1.086,0.506 -1.103,1.145z" fill="currentColor"/></svg>