<svg viewBox="0 0 31.9463 32" fill="none" xmlns="http://www.w3.org/2000/svg" xmlns:xlink="http://www.w3.org/1999/xlink" x="0" y="0"><defs><linearGradient id="paint7_linear_3902_80628" x1="15.88110000000006" y1="-9.25" x2="-7.488900000000058" y2="16.0600000000004" gradientUnits="userSpaceOnUse">
<stop stop-color="#5955C9"/>
<stop offset="0.246" stop-color="#6E4EBC"/>
<stop offset="0.527" stop-color="#D92D79"/>
<stop offset="0.803" stop-color="#FD8A2D"/>
<stop offset="1" stop-color="#FEC460"/>
</linearGradient></defs><g id="Group_15">
<ellipse id="Ellipse_80-3" cx="15.971099999999979" cy="16" rx="15.9732" ry="16" fill="url(#paint7_linear_3902_80628)"/>
<path id="Combined Shape_11" d="M19.3711,8c2.7,0 4.89,2.19 4.89,4.9v6.51c0,2.7 -2.19,4.89 -4.89,4.9h-6.49c-2.7,-0.01 -4.89,-2.2 -4.89,-4.9v-6.51c0,-2.71 2.19,-4.9 4.89,-4.9zM12.8811,9.54c-1.86,0 -3.36,1.5 -3.36,3.36v6.51c0,1.85 1.5,3.36 3.36,3.36h6.49c1.86,0 3.36,-1.51 3.36,-3.36v-6.51c0,-1.86 -1.5,-3.36 -3.36,-3.36zM16.1911,12.14c2.21,0 4.01,1.8 4.01,4.01c0,1.63 -0.98,3.09 -2.47,3.72c-1.5,0.62 -3.23,0.27 -4.37,-0.88c-1.15,-1.14 -1.49,-2.87 -0.87,-4.37c0.62,-1.5 2.08,-2.48 3.7,-2.48zM16.1911,13.58c-1.42,0 -2.56,1.15 -2.56,2.57c-0.01,1.42 1.14,2.58 2.56,2.58c1.42,-0.01 2.57,-1.16 2.57,-2.58c0,-1.42 -1.15,-2.57 -2.57,-2.57zM20.4311,10.91c0.53,0 0.96,0.43 0.96,0.96c0,0.38 -0.23,0.73 -0.59,0.88c-0.36,0.15 -0.77,0.07 -1.04,-0.21c-0.27,-0.27 -0.35,-0.68 -0.21,-1.04c0.15,-0.35 0.5,-0.59 0.88,-0.59z" fill="white"/>
</g></svg>