<svg viewBox="0 0 31.9463 32" fill="none" xmlns="http://www.w3.org/2000/svg" xmlns:xlink="http://www.w3.org/1999/xlink" x="0" y="0"><g id="Group_16">
<ellipse id="Ellipse_80-4" cx="15.974699999999984" cy="16" rx="15.9732" ry="16" fill="currentColor"/>
<path id="Path_277" fill-rule="evenodd" clip-rule="evenodd" d="M11.1047,9.6h10.03c2.16,0 3.92,1.76 3.92,3.93v4.67c0,2.17 -1.76,3.92 -3.92,3.92h-10.03c-1.04,0 -2.03,-0.41 -2.77,-1.15c-0.73,-0.73 -1.15,-1.73 -1.15,-2.77v-4.67c0,-1.04 0.42,-2.04 1.15,-2.78c0.74,-0.74 1.73,-1.15 2.77,-1.15zM14.6647,18.44l4.49,-2.23c0.18,-0.1 -0.01,-0.36 -0.19,-0.46l-4.3,-2.35c-0.18,-0.1 -0.78,0.03 -0.78,0.24v4.57c0,0.2 0.6,0.33 0.78,0.23z" fill="white"/>
</g></svg>