<svg viewBox="0 0 142 32" fill="none" xmlns="http://www.w3.org/2000/svg" xmlns:xlink="http://www.w3.org/1999/xlink" x="0" y="0"><g id="logo_3">
<path id="Combined Shape" fill-rule="evenodd" clip-rule="evenodd" d="M16.213,22.0497c2.746,0.6464 5.179,2.2346 6.876,4.4883c-2.142,2.1409 -4.667,3.8608 -7.443,5.0693c1.32,-3.0169 1.521,-6.4057 0.567,-9.5576zM13.47,21.7382c0.244,0 0.487,0.0086 0.727,0.0234c1.184,3.0919 1.041,6.5347 -0.396,9.5176c-3.218,-1.5312 -6.059,-3.7525 -8.321,-6.5059c2.2,-1.9576 5.044,-3.0376 7.99,-3.0351zM0.516,4.4843c8.792,-5.979 20.346,-5.9791 29.138,0c1.543,7.3542 -0.423,15.0077 -5.318,20.7099c-2.199,-2.7871 -5.385,-4.6235 -8.899,-5.1299c-2.31,-4.7975 -7.163,-7.8502 -12.489,-7.8545c-0.927,-0.0002 -1.851,0.0922 -2.76,0.2764c-0.125,-1.0026 -0.188,-2.0121 -0.188,-3.0225c-0.001,-1.6732 0.172,-3.3419 0.516,-4.9794zM2.951,14.0214c4.253,0.0029 8.189,2.2473 10.357,5.9043c-3.286,0.0353 -6.452,1.2417 -8.927,3.4023c-1.912,-2.7151 -3.24,-5.7968 -3.9,-9.0508c0.812,-0.1698 1.641,-0.256 2.47,-0.2558z" fill="currentColor"/>
<path id="Path_126" d="M58.302,4.8404h-3.914c-0.124,-0.0002 -0.24,0.0587 -0.312,0.1583l-6.403,8.8009l-6.402,-8.8009c-0.073,-0.0995 -0.188,-0.1584 -0.312,-0.1583h-3.944c-0.102,0 -0.2,0.0406 -0.273,0.1129c-0.072,0.0724 -0.113,0.1705 -0.113,0.2727v20.0657c0,0.213 0.173,0.3856 0.386,0.3856h3.16c0.213,0 0.385,-0.1726 0.385,-0.3856v-14.7693l6.525,8.9207c0.073,0.099 0.188,0.1575 0.311,0.1575h0.386c0.121,0 0.236,-0.0572 0.308,-0.1543l6.674,-8.8951v14.7355c0,0.213 0.172,0.3857 0.385,0.3857h3.16c0.102,0 0.2,-0.0406 0.272,-0.113c0.073,-0.0723 0.113,-0.1704 0.113,-0.2727v-20.0615c0,-0.1033 -0.041,-0.2022 -0.115,-0.2745c-0.074,-0.0723 -0.174,-0.1121 -0.277,-0.1103z" fill="currentColor"/>
<path id="Path_127" fill-rule="evenodd" clip-rule="evenodd" d="M63.553,12.8414c1.442,-1.4519 3.423,-2.2374 5.468,-2.1672c2.054,-0.0733 4.046,0.708 5.502,2.1579c1.456,1.4499 2.245,3.4384 2.18,5.4917c0.093,2.0559 -0.683,4.0561 -2.139,5.5113c-1.456,1.4552 -3.457,2.2313 -5.513,2.1383c-4.764,0 -7.623,-3.4231 -7.623,-7.6496c-0.086,-2.0436 0.684,-4.0305 2.125,-5.4824zM65.064,18.3238c0,2.2327 1.339,4.3159 3.99,4.3159c2.646,0 3.986,-2.0832 3.989,-4.3159c0.056,-1.1075 -0.335,-2.1911 -1.085,-3.0083c-0.75,-0.8173 -1.796,-1.3 -2.904,-1.3404c-2.62,0 -3.99,2.1465 -3.99,4.3487z" fill="currentColor"/>
<path id="Path_128" fill-rule="evenodd" clip-rule="evenodd" d="M82.838,12.9667c0.863,-1.518 3.276,-2.3516 4.824,-2.3516c4.287,0 7.473,2.6191 7.475,7.6792c0,4.8213 -3.246,7.6792 -7.563,7.6792c-1.883,0.1062 -3.682,-0.7875 -4.735,-2.3516c-0.135,1.1542 -1.114,2.0242 -2.277,2.0242h-1.357v-20.4201c0,-0.1023 0.04,-0.2004 0.113,-0.2727c0.072,-0.0723 0.17,-0.113 0.273,-0.113h2.862c0.213,0.0005 0.385,0.173 0.385,0.3857zM83.031,18.3099c0,2.3754 1.926,4.3011 4.302,4.3011v-0.0008c1.136,0.0132 2.227,-0.4422 3.016,-1.2588c0.789,-0.8166 1.206,-1.9222 1.153,-3.0563c0.068,-1.1353 -0.346,-2.2466 -1.139,-3.062c-0.793,-0.8154 -1.893,-1.2598 -3.03,-1.2244c-2.376,0 -4.302,1.9257 -4.302,4.3012z" fill="currentColor"/>
<path id="Path_129" d="M97.489,6.835c0,2.8275 4.288,2.8275 4.288,0c0,-2.8275 -4.288,-2.8275 -4.288,0z" fill="currentColor"/>
<rect id="Rectangle_589" x="97.81599999999997" y="10.912999999999997" width="3.6329" height="14.7339" rx="1.81645" fill="currentColor"/>
<path id="Path_130" d="M115.137,21.6428c-0.142,-0.1377 -0.365,-0.1455 -0.516,-0.018c-0.838,0.6698 -1.887,1.0189 -2.959,0.9846c-1.142,0.0513 -2.251,-0.388 -3.048,-1.2071c-0.796,-0.8192 -1.204,-1.9398 -1.121,-3.0793c-0.062,-1.1498 0.36,-2.2733 1.162,-3.099c0.803,-0.8258 1.915,-1.2788 3.066,-1.2497c0.973,0.0102 1.916,0.3406 2.683,0.9403c0.155,0.1201 0.376,0.1031 0.512,-0.0394l1.778,-1.8707c0.072,-0.0761 0.11,-0.1778 0.106,-0.2822c-0.005,-0.1044 -0.051,-0.2026 -0.129,-0.2725c-1.345,-1.2804 -3.15,-1.9649 -5.006,-1.8987c-4.259,0 -7.798,2.56 -7.798,7.7687c0,5.2086 3.543,7.7686 7.798,7.7686c1.985,0.0573 3.911,-0.6755 5.356,-2.0374c0.08,-0.0715 0.126,-0.1727 0.129,-0.2798c0.002,-0.107 -0.039,-0.2104 -0.116,-0.2855z" fill="currentColor"/>
<rect id="Rectangle_590" x="118.928" y="10.9131" width="3.6329" height="14.7339" rx="1.81645" fill="currentColor"/>
<path id="Path_131" d="M118.6,6.8351c0,2.8275 4.288,2.8275 4.288,0c0,-2.8275 -4.288,-2.8275 -4.288,0z" fill="currentColor"/>
<path id="Path_132" fill-rule="evenodd" clip-rule="evenodd" d="M129.472,12.9962c1.116,-1.503 2.888,-2.378 4.76,-2.3516c4.526,0 7.534,3.3633 7.531,7.6792c0,4.2864 -2.709,7.68 -7.414,7.68c-1.548,0 -3.841,-0.4767 -4.883,-2.0841v7.4732c0,0.1023 -0.041,0.2004 -0.113,0.2727c-0.072,0.0723 -0.17,0.113 -0.273,0.113h-2.861c-0.102,0 -0.201,-0.0407 -0.273,-0.113c-0.072,-0.0723 -0.113,-0.1704 -0.113,-0.2727v-20.4209h1.362c1.162,0.0003 2.141,0.8701 2.277,2.0242zM130.987,21.3007c0.787,0.7875 1.864,1.2178 2.978,1.1906c1.113,0.027 2.189,-0.4034 2.977,-1.1909c0.788,-0.7875 1.218,-1.8633 1.191,-2.9765c-0.032,-2.2786 -1.889,-4.1089 -4.169,-4.1089c-2.279,0 -4.136,1.8303 -4.168,4.1089c-0.028,1.1134 0.403,2.1893 1.191,2.9768z" fill="currentColor"/>
</g></svg>