<svg viewBox="0 0 22.8998 23.9997" fill="none" xmlns="http://www.w3.org/2000/svg" xmlns:xlink="http://www.w3.org/1999/xlink" x="0" y="0"><path id="logo/mobiLogomark" fill-rule="evenodd" clip-rule="evenodd" d="M12.307,16.7395c2.084,0.49 3.931,1.7 5.218,3.41c-1.625,1.63 -3.542,2.93 -5.65,3.85c1.002,-2.29 1.155,-4.86 0.432,-7.26zM10.224,16.5095c0.185,0 0.37,0 0.552,0.01c0.899,2.35 0.79,4.97 -0.3,7.23c-2.443,-1.16 -4.599,-2.85 -6.316,-4.94c1.67,-1.48 3.828,-2.31 6.064,-2.3zM0.392,3.4095c6.673,-4.54 15.443,-4.54 22.117,0c1.171,5.58 -0.321,11.39 -4.036,15.72c-1.669,-2.12 -4.088,-3.51 -6.755,-3.89c-1.753,-3.65 -5.437,-5.96 -9.48,-5.97c-0.703,0 -1.405,0.07 -2.094,0.21c-0.096,-0.76 -0.144,-1.53 -0.144,-2.29c-0.001,-1.27 0.131,-2.54 0.392,-3.78zM2.24,10.6495c3.228,0 6.216,1.7 7.862,4.48c-2.495,0.03 -4.898,0.94 -6.777,2.58c-1.451,-2.06 -2.458,-4.4 -2.959,-6.87c0.616,-0.13 1.245,-0.19 1.874,-0.19z" fill="currentColor"/></svg>