<svg viewBox="0 0 95 14.25" fill="none" xmlns="http://www.w3.org/2000/svg" xmlns:xlink="http://www.w3.org/1999/xlink" x="0" y="0"><g id="Frame 410_3">
<g id="Frame 408_2">
<path id="Vector_6" d="M7.4996,11.45l4.635,2.8l-1.23,-5.27l4.095,-3.55l-5.392,-0.46l-2.108,-4.97l-2.107,4.97l-5.393,0.46l4.095,3.55l-1.23,5.27z" fill="currentColor"/>
</g>
<g id="Frame 410_4">
<path id="Vector_7" d="M27.4996,11.45l4.635,2.8l-1.23,-5.27l4.095,-3.55l-5.392,-0.46l-2.108,-4.97l-2.107,4.97l-5.393,0.46l4.095,3.55l-1.23,5.27z" fill="currentColor"/>
</g>
<g id="Frame 411_2">
<path id="Vector_8" d="M47.4996,11.45l4.635,2.8l-1.23,-5.27l4.095,-3.55l-5.392,-0.46l-2.108,-4.97l-2.107,4.97l-5.393,0.46l4.095,3.55l-1.23,5.27z" fill="currentColor"/>
</g>
<g id="Frame 412_2">
<path id="Vector_9" d="M67.4996,11.45l4.635,2.8l-1.23,-5.27l4.095,-3.55l-5.392,-0.46l-2.108,-4.97l-2.107,4.97l-5.393,0.46l4.095,3.55l-1.23,5.27z" fill="currentColor"/>
</g>
<g id="Frame 409_2">
<path id="Vector_10" d="M87.4996,11.45l4.635,2.8l-1.23,-5.27l4.095,-3.55l-5.392,-0.46l-2.108,-4.97l-2.107,4.97l-5.393,0.46l4.095,3.55l-1.23,5.27z" fill="currentColor"/>
</g>
</g></svg>