<svg viewBox="0 0 28 27" fill="none" xmlns="http://www.w3.org/2000/svg" xmlns:xlink="http://www.w3.org/1999/xlink" x="0" y="0"><path id="icon/32/socialmedia" fill-rule="evenodd" clip-rule="evenodd" d="M0,23.153c0,-1.02 0.408,-1.999 1.134,-2.72c0.726,-0.721 1.711,-1.126 2.739,-1.126c0.393,0.005 0.783,0.07 1.157,0.193l2.158,-2.143c-2.917,-2.955 -3.75,-7.367 -2.108,-11.171c1.642,-3.803 5.434,-6.246 9.6,-6.185c4.167,0.061 7.884,2.615 9.412,6.465c1.528,3.85 0.564,8.235 -2.44,11.103l0.809,0.725c1.771,-0.764 3.839,-0.149 4.894,1.457c1.056,1.605 0.792,3.733 -0.624,5.036c-1.417,1.303 -3.573,1.402 -5.104,0.234c-1.531,-1.169 -1.991,-3.263 -1.088,-4.959l-1.022,-0.918c-3.206,1.773 -7.122,1.707 -10.265,-0.173l-2.122,2.11c0.403,0.617 0.617,1.336 0.617,2.072c0,2.125 -1.734,3.847 -3.874,3.847c-2.139,0 -3.873,-1.722 -3.873,-3.847zM2.608,23.153c0,0.693 0.566,1.256 1.265,1.256c0.698,0 1.264,-0.563 1.264,-1.256c0,-0.693 -0.566,-1.256 -1.264,-1.256c-0.698,0.001 -1.264,0.563 -1.265,1.256zM22.687,21.844c0,0.693 0.566,1.255 1.264,1.255c0.698,0 1.264,-0.562 1.264,-1.255c0,-0.694 -0.566,-1.256 -1.264,-1.256c-0.697,0.001 -1.263,0.561 -1.265,1.254zM14.53,17.839c1.884,0.001 3.703,-0.689 5.106,-1.94c-2,-1.783 -3.935,-2.617 -5.766,-2.471c-1.747,0.231 -3.34,1.111 -4.46,2.462c1.405,1.256 3.229,1.949 5.12,1.947zM18.562,8.963c-0.003,0.942 -0.344,1.852 -0.961,2.568c1.339,0.578 2.575,1.369 3.659,2.341c1.76,-3.199 0.992,-7.188 -1.833,-9.515c-2.825,-2.328 -6.914,-2.342 -9.754,-0.033c-2.841,2.309 -3.636,6.293 -1.897,9.503c1,-1.057 2.215,-1.89 3.564,-2.443c-0.541,-0.692 -0.836,-1.542 -0.839,-2.418c0,-2.212 1.805,-4.005 4.032,-4.005c2.227,0 4.033,1.793 4.033,4.005zM13.105,8.963c0,0.78 0.636,1.413 1.422,1.413c0.786,0.001 1.424,-0.632 1.424,-1.412c0.001,-0.781 -0.636,-1.414 -1.421,-1.415c-0.786,0.001 -1.423,0.632 -1.425,1.413z" fill="currentColor"/></svg>