<svg viewBox="0 0 24 24" fill="none" xmlns="http://www.w3.org/2000/svg" xmlns:xlink="http://www.w3.org/1999/xlink" x="0" y="0"><path id="icon/32/tick" d="M12,0c6.627,0 12,5.37 12,12c0,6.63 -5.373,12 -12,12c-6.627,0 -12,-5.37 -12,-12c0,-6.63 5.373,-12 12,-12zM12,2.25c-5.385,0 -9.75,4.37 -9.75,9.75c0,5.38 4.365,9.75 9.75,9.75c5.385,0 9.75,-4.37 9.75,-9.75c0,-5.38 -4.365,-9.75 -9.75,-9.75zM15.2,8.22c0.398,-0.48 1.108,-0.54 1.585,-0.15c0.448,0.38 0.532,1.02 0.213,1.5l-0.069,0.09l-5.021,6.02c-0.065,0.08 -0.139,0.15 -0.219,0.2c-0.006,0.01 -0.012,0.01 -0.018,0.02c-0.019,0.01 -0.04,0.02 -0.06,0.03c-0.012,0.01 -0.024,0.02 -0.036,0.02c-0.052,0.03 -0.107,0.06 -0.163,0.07c-0.008,0.01 -0.017,0.01 -0.025,0.01c-0.023,0.01 -0.047,0.02 -0.07,0.02c-0.012,0.01 -0.025,0.01 -0.038,0.01c-0.019,0.01 -0.038,0.01 -0.057,0.01c-0.013,0 -0.026,0.01 -0.038,0.01c-0.027,0 -0.054,0 -0.081,0c-0.005,0.01 -0.009,0.01 -0.013,0.01c-0.026,0 -0.052,0 -0.077,0c-0.013,0 -0.025,0 -0.037,-0.01c-0.025,0 -0.049,0 -0.074,0c-0.006,0 -0.013,0 -0.019,0c-0.191,-0.03 -0.377,-0.11 -0.538,-0.24c-0.004,0 -0.008,0 -0.011,-0.01h-0.003c-0.002,0 -0.005,0 -0.007,0c-0.035,-0.03 -0.068,-0.06 -0.098,-0.1l-2.99,-2.98c-0.439,-0.44 -0.438,-1.16 0,-1.59c0.412,-0.42 1.064,-0.44 1.506,-0.08l0.086,0.08l2.141,2.14z" fill="currentColor"/></svg>