<svg viewBox="0 0 120.3083 20" fill="none" xmlns="http://www.w3.org/2000/svg" xmlns:xlink="http://www.w3.org/1999/xlink" x="0" y="0"><g id="Frame 197_2">
<g id="24/star_6">
<path id="icon/24/star_6" fill-rule="evenodd" clip-rule="evenodd" d="M13.516,7.35l3.458,0.49c0.98,0.14 1.373,1.31 0.665,1.99l-2.499,2.39c-0.281,0.27 -0.409,0.65 -0.343,1.03l0.595,3.37c0.169,0.95 -0.855,1.68 -1.733,1.23l-3.094,-1.58c-0.348,-0.18 -0.764,-0.18 -1.112,0l-3.091,1.59c-0.876,0.45 -1.902,-0.27 -1.736,-1.23l0.587,-3.37c0.066,-0.37 -0.063,-0.76 -0.345,-1.03l-2.505,-2.38c-0.71,-0.68 -0.32,-1.86 0.66,-2l3.457,-0.49c0.389,-0.06 0.726,-0.3 0.899,-0.64l1.543,-3.07c0.437,-0.87 1.704,-0.87 2.143,0l1.55,3.06c0.175,0.35 0.512,0.59 0.901,0.64z" fill="currentColor"/>
</g>
<g id="24/star_7">
<path id="icon/24/star_7" fill-rule="evenodd" clip-rule="evenodd" d="M38.378,7.35l3.458,0.49c0.98,0.14 1.373,1.31 0.664,1.99l-2.499,2.39c-0.281,0.27 -0.409,0.65 -0.342,1.03l0.595,3.37c0.168,0.95 -0.855,1.68 -1.733,1.23l-3.094,-1.58c-0.349,-0.18 -0.765,-0.18 -1.113,0l-3.09,1.59c-0.877,0.45 -1.902,-0.27 -1.736,-1.23l0.586,-3.37c0.066,-0.37 -0.062,-0.76 -0.345,-1.03l-2.504,-2.38c-0.71,-0.68 -0.32,-1.86 0.66,-2l3.457,-0.49c0.389,-0.06 0.725,-0.3 0.899,-0.64l1.542,-3.07c0.438,-0.87 1.705,-0.87 2.144,0l1.55,3.06c0.175,0.35 0.511,0.59 0.901,0.64z" fill="currentColor"/>
</g>
<g id="24/star_8">
<path id="icon/24/star_8" fill-rule="evenodd" clip-rule="evenodd" d="M63.239,7.35l3.458,0.49c0.981,0.14 1.374,1.31 0.665,1.99l-2.499,2.39c-0.281,0.27 -0.409,0.65 -0.342,1.03l0.594,3.37c0.169,0.95 -0.855,1.68 -1.732,1.23l-3.095,-1.58c-0.348,-0.18 -0.764,-0.18 -1.112,0l-3.091,1.59c-0.876,0.45 -1.902,-0.27 -1.735,-1.23l0.586,-3.37c0.066,-0.37 -0.063,-0.76 -0.345,-1.03l-2.504,-2.38c-0.711,-0.68 -0.321,-1.86 0.66,-2l3.457,-0.49c0.389,-0.06 0.725,-0.3 0.899,-0.64l1.542,-3.07c0.438,-0.87 1.704,-0.87 2.144,0l1.55,3.06c0.174,0.35 0.511,0.59 0.9,0.64z" fill="currentColor"/>
</g>
<g id="24/star_9">
<path id="icon/24/star_9" fill-rule="evenodd" clip-rule="evenodd" d="M88.101,7.35l3.458,0.49c0.98,0.14 1.373,1.31 0.665,1.99l-2.499,2.39c-0.282,0.27 -0.409,0.65 -0.343,1.03l0.595,3.37c0.169,0.95 -0.855,1.68 -1.733,1.23l-3.094,-1.58c-0.348,-0.18 -0.764,-0.18 -1.112,0l-3.091,1.59c-0.876,0.45 -1.902,-0.27 -1.736,-1.23l0.587,-3.37c0.066,-0.37 -0.063,-0.76 -0.346,-1.03l-2.504,-2.38c-0.71,-0.68 -0.32,-1.86 0.66,-2l3.457,-0.49c0.389,-0.06 0.726,-0.3 0.899,-0.64l1.543,-3.07c0.437,-0.87 1.704,-0.87 2.143,0l1.55,3.06c0.175,0.35 0.512,0.59 0.901,0.64z" fill="currentColor"/>
</g>
<g id="24/star_10">
<path id="icon/24/star_10" fill-rule="evenodd" clip-rule="evenodd" d="M112.963,7.35l3.457,0.49c0.981,0.14 1.374,1.31 0.665,1.99l-2.499,2.39c-0.281,0.27 -0.409,0.65 -0.342,1.03l0.595,3.37c0.168,0.95 -0.856,1.68 -1.733,1.23l-3.094,-1.58c-0.349,-0.18 -0.765,-0.18 -1.113,0l-3.09,1.59c-0.877,0.45 -1.902,-0.27 -1.736,-1.23l0.586,-3.37c0.066,-0.37 -0.062,-0.76 -0.345,-1.03l-2.504,-2.38c-0.71,-0.68 -0.32,-1.86 0.66,-2l3.457,-0.49c0.389,-0.06 0.725,-0.3 0.899,-0.64l1.542,-3.07c0.438,-0.87 1.705,-0.87 2.144,0l1.55,3.06c0.174,0.35 0.511,0.59 0.901,0.64z" fill="currentColor"/>
</g>
</g></svg>